<?xml version="1.0" encoding="utf-8"?>
<!-- Generator: Adobe Illustrator 27.5.0, SVG Export Plug-In . SVG Version: 6.00 Build 0)  -->
<svg version="1.1" id="Layer_1" xmlns="http://www.w3.org/2000/svg" xmlns:xlink="http://www.w3.org/1999/xlink" x="0px" y="0px"
	 viewBox="0 0 250 250" style="enable-background:new 0 0 250 250;" xml:space="preserve">
<style type="text/css">
	.st0{fill:#54469F;}
	.st1{fill:#010101;}
	.st2{fill:#F4F4F4;}
	.st3{fill:#F4F5F4;}
	.st4{fill:#F5F4F5;}
	.st5{fill:#F3F3F3;}
	.st6{fill:#F3F3F5;}
	.st7{fill:#F4F4F5;}
	.st8{fill:#F3F5F4;}
	.st9{fill:#F7F7F7;}
	.st10{fill:#F6F6F6;}
	.st11{fill:#F8F7F7;}
	.st12{fill:#F8F8F8;}
	.st13{fill:#F9F9F9;}
	.st14{fill:#FBFBFB;}
	.st15{fill:#FAFAFA;}
	.st16{fill:#F4F5F5;}
	.st17{fill:#F5F5F5;}
	.st18{fill:#F4F4F6;}
	.st19{fill:#F3F3F6;}
	.st20{fill:#F3F4F4;}
	.st21{fill:#F2F4F4;}
	.st22{fill:#F3F2F4;}
	.st23{fill:#F2F2F4;}
	.st24{fill:#F2F3F4;}
	.st25{fill:#F3F5F5;}
	.st26{fill:#F5F5F6;}
	.st27{fill:#F5F6F6;}
	.st28{fill:#F4F5F6;}
	.st29{fill:#F4F5F7;}
	.st30{fill:#F3F3F2;}
	.st31{fill:#F2F3F5;}
	.st32{fill:#F5F4F7;}
	.st33{fill:#F3F4F6;}
	.st34{fill:#F5F5F7;}
	.st35{fill:#F1F1F2;}
	.st36{fill:#F1F2F3;}
	.st37{fill:#F3F2F2;}
	.st38{fill:#F5F6F5;}
	.st39{fill:#F5F7F3;}
	.st40{fill:#F2F4F6;}
	.st41{fill:#723079;}
	.st42{fill:#F2F1F1;}
	.st43{fill:#F3F1F7;}
	.st44{fill:#F4F2F7;}
	.st45{fill:#62286F;}
	.st46{fill:#F0F4F2;}
	.st47{fill:#533071;}
	.st48{fill:#F4F6F0;}
	.st49{fill:#723376;}
	.st50{fill:#7E3070;}
	.st51{fill:#F1F0F4;}
	.st52{fill:#8D3B77;}
	.st53{fill:#F6F1F6;}
	.st54{fill:#E0C2DE;}
	.st55{fill:#F2F4F3;}
	.st56{fill:#F3F4F3;}
	.st57{fill:#F3F4F2;}
	.st58{fill:#432B78;}
	.st59{fill:#F2F2F2;}
	.st60{fill:#5E327A;}
	.st61{fill:#3F2971;}
	.st62{fill:#4D2E78;}
	.st63{fill:#402E76;}
	.st64{fill:#442A72;}
	.st65{fill:#F2F3F2;}
	.st66{fill:#54307B;}
	.st67{fill:#F3F5F7;}
	.st68{fill:#F4F4F1;}
	.st69{fill:#5D2E7B;}
	.st70{fill:#F2F2F3;}
	.st71{fill:#F2F5F2;}
	.st72{fill:#F5F5F8;}
	.st73{fill:#4A2D77;}
	.st74{fill:#512E77;}
	.st75{fill:#F4F3F9;}
	.st76{fill:#442F76;}
	.st77{fill:#AAA4BD;}
	.st78{fill:#A095B7;}
	.st79{fill:#F4F3F5;}
	.st80{fill:#F4F3F6;}
	.st81{fill:#F2F3F3;}
	.st82{fill:#F1F5F7;}
	.st83{fill:#F6F3F4;}
	.st84{fill:#F4EFF5;}
	.st85{fill:#F4F3F4;}
	.st86{fill:#F3F1F4;}
	.st87{fill:#A9337D;}
	.st88{fill:#A5327D;}
	.st89{fill:#AA367C;}
	.st90{fill:#A73078;}
	.st91{fill:#F1F3F3;}
	.st92{fill:#F5F5F2;}
	.st93{fill:#F0F5F3;}
	.st94{fill:#A53179;}
	.st95{fill:#F8F5F7;}
	.st96{fill:#F8EEF8;}
	.st97{fill:#F9F2F6;}
	.st98{fill:#3F2778;}
	.st99{fill:#F6F4F9;}
	.st100{fill:#412875;}
	.st101{fill:#F5F5F1;}
	.st102{fill:#F4EFF7;}
	.st103{fill:#422E73;}
	.st104{fill:#3F296C;}
	.st105{fill:#402A72;}
	.st106{fill:#412B70;}
	.st107{fill:#453274;}
	.st108{fill:#615684;}
	.st109{fill:#4E3C75;}
	.st110{fill:#EDECED;}
	.st111{fill:#38236B;}
	.st112{fill:#3A256D;}
	.st113{fill:#F3F1F2;}
	.st114{fill:#EFEFF2;}
	.st115{fill:#F1F3F2;}
	.st116{fill:#F3F2F5;}
	.st117{fill:#F3ECF2;}
	.st118{fill:#5F276D;}
	.st119{fill:#642C77;}
	.st120{fill:#632972;}
	.st121{fill:#5F2A6F;}
	.st122{fill:#623074;}
	.st123{fill:#F0F2F3;}
	.st124{fill:#F5F1F1;}
	.st125{fill:#F5F3F2;}
	.st126{fill:#ECF4F7;}
	.st127{fill:#F1F2F2;}
	.st128{fill:#713075;}
	.st129{fill:#68266D;}
	.st130{fill:#6E2D74;}
	.st131{fill:#452E71;}
	.st132{fill:#F3F4F1;}
	.st133{fill:#5B2674;}
	.st134{fill:#F3F2F7;}
	.st135{fill:#F1EDF5;}
	.st136{fill:#592D71;}
	.st137{fill:#F4F6F6;}
	.st138{fill:#6B2D71;}
	.st139{fill:#703376;}
	.st140{fill:#F3F4F5;}
	.st141{fill:#F6F2F5;}
	.st142{fill:#F2F0F5;}
	.st143{fill:#733575;}
	.st144{fill:#562D74;}
	.st145{fill:#583374;}
	.st146{fill:#643C78;}
	.st147{fill:#F3F6F4;}
	.st148{fill:#662875;}
	.st149{fill:#612877;}
	.st150{fill:#F6F4FA;}
	.st151{fill:#F0F0F3;}
	.st152{fill:#F4F3F7;}
	.st153{fill:#523075;}
	.st154{fill:#F0F3F4;}
	.st155{fill:#8C317C;}
	.st156{fill:#833078;}
	.st157{fill:#91337E;}
	.st158{fill:#F4F1F7;}
	.st159{fill:#8D3479;}
	.st160{fill:#BD96AD;}
	.st161{fill:#A6749D;}
	.st162{fill:#A273A5;}
	.st163{fill:#CBA2CF;}
	.st164{fill:#472F73;}
	.st165{fill:#462D71;}
	.st166{fill:#422C6D;}
	.st167{fill:#F3F5EF;}
	.st168{fill:#3F296E;}
	.st169{fill:#F0EFF2;}
	.st170{fill:#F1F4F3;}
	.st171{fill:#442671;}
	.st172{fill:#F6F6F8;}
	.st173{fill:#F1F0F5;}
	.st174{fill:#F3F4F8;}
	.st175{fill:#F5F7F1;}
	.st176{fill:#F3F7F3;}
	.st177{fill:#F3F2EF;}
	.st178{fill:#F2F1EF;}
	.st179{fill:#F2F5F3;}
	.st180{fill:#642877;}
	.st181{fill:#F7F6F9;}
	.st182{fill:#672972;}
	.st183{fill:#A1317B;}
	.st184{fill:#9E3076;}
	.st185{fill:#F0EFF3;}
	.st186{fill:#9B3171;}
	.st187{fill:#F0F3F0;}
	.st188{fill:#F3F2F0;}
	.st189{fill:#40286D;}
	.st190{fill:#44316E;}
	.st191{fill:#7F2E76;}
	.st192{fill:#F0F2F5;}
	.st193{fill:#F4EEF8;}
	.st194{fill:#F7F5F9;}
	.st195{fill:#F2E9F3;}
	.st196{fill:#562C72;}
	.st197{fill:#F6F5F7;}
	.st198{fill:#66256F;}
	.st199{fill:#F6F2F8;}
	.st200{fill:#382368;}
	.st201{fill:#3D2871;}
	.st202{fill:#402D70;}
	.st203{fill:#3C286A;}
	.st204{fill:#3F2D6D;}
	.st205{fill:#ECE9F0;}
	.st206{fill:#463472;}
	.st207{fill:#512B71;}
	.st208{fill:#4E2C6B;}
	.st209{fill:#863577;}
	.st210{fill:#F4F6F4;}
	.st211{fill:#6E628E;}
	.st212{fill:#F0F1F1;}
	.st213{fill:#EEF2EF;}
	.st214{fill:#F2F3F0;}
	.st215{fill:#572D74;}
	.st216{fill:#F4F2F5;}
	.st217{fill:#4C2F75;}
	.st218{fill:#4D3378;}
	.st219{fill:#F5F3F5;}
	.st220{fill:#F1F1F1;}
	.st221{fill:#F6F7F6;}
	.st222{fill:#F6F5F2;}
	.st223{fill:#F6F1F8;}
	.st224{fill:#412A75;}
	.st225{fill:#452C72;}
	.st226{fill:#432671;}
	.st227{fill:#F2F3F6;}
	.st228{fill:#F4F6F8;}
	.st229{fill:#593178;}
	.st230{fill:#EDEBF1;}
	.st231{fill:#F1F1F3;}
	.st232{fill:#EFEFF3;}
	.st233{fill:#4F316F;}
	.st234{fill:#3D2E74;}
	.st235{fill:#534784;}
	.st236{fill:#462B78;}
	.st237{fill:#EFEFF0;}
	.st238{fill:#E9E7ED;}
	.st239{fill:#4A3373;}
	.st240{fill:#592B77;}
	.st241{fill:#5B3277;}
	.st242{fill:#502977;}
	.st243{fill:#F0F0F2;}
	.st244{fill:#4E2D73;}
	.st245{fill:#522D7F;}
	.st246{fill:#F2EDF7;}
	.st247{fill:#4F2F74;}
	.st248{fill:#EEEBF0;}
	.st249{fill:#57377E;}
	.st250{fill:#F5F8F5;}
	.st251{fill:#F9F7F6;}
	.st252{fill:#EFF2F4;}
	.st253{fill:#442870;}
	.st254{fill:#452F6C;}
	.st255{fill:#63507D;}
	.st256{fill:#C3C5CC;}
	.st257{fill:#72658B;}
	.st258{fill:#706488;}
	.st259{fill:#AFA8BD;}
	.st260{fill:#9086A1;}
	.st261{fill:#3E2B70;}
	.st262{fill:#F2F1F4;}
	.st263{fill:#903678;}
	.st264{fill:#F1F5F6;}
	.st265{fill:#8B3175;}
	.st266{fill:#8E3B75;}
	.st267{fill:#F6F8F7;}
	.st268{fill:#EFF3F4;}
	.st269{fill:#F6F3F6;}
	.st270{fill:#F1F2F4;}
	.st271{fill:#6B2E73;}
	.st272{fill:#F4F5F8;}
	.st273{fill:#F3F2F3;}
	.st274{fill:#F1F1F0;}
	.st275{fill:#F8F3F7;}
	.st276{fill:#F0F6F4;}
	.st277{fill:#F1F2FA;}
	.st278{fill:#EFF0F2;}
	.st279{fill:#793176;}
	.st280{fill:#6B2C75;}
	.st281{fill:#732E74;}
	.st282{fill:#EFF1F2;}
	.st283{fill:#88306C;}
	.st284{fill:#F5F3F1;}
	.st285{fill:#953B7A;}
	.st286{fill:#963C79;}
	.st287{fill:#9D417B;}
	.st288{fill:#933B7A;}
	.st289{fill:#F3F3F4;}
	.st290{fill:#F5F5F4;}
	.st291{fill:#F2F4F5;}
	.st292{fill:#F1F4F2;}
	.st293{fill:#F6F5F5;}
	.st294{fill:#572A79;}
	.st295{fill:#A12E74;}
	.st296{fill:#F7F3F3;}
	.st297{fill:#F3EDF4;}
	.st298{fill:#F4F2F4;}
	.st299{fill:#F2EFF3;}
	.st300{fill:#A53378;}
	.st301{fill:#F1F3F4;}
	.st302{fill:#A9347D;}
	.st303{fill:#98386D;}
	.st304{fill:#F2F3F8;}
	.st305{fill:#F3F6F5;}
	.st306{fill:#A2337A;}
	.st307{fill:#A13377;}
	.st308{fill:#A1317D;}
	.st309{fill:#ECF4F3;}
	.st310{fill:#F5F0F4;}
	.st311{fill:#F0F1F3;}
	.st312{fill:#ECF6F0;}
	.st313{fill:#9F3C79;}
	.st314{fill:#A02F7C;}
	.st315{fill:#A03077;}
	.st316{fill:#9D3379;}
	.st317{fill:#983978;}
	.st318{fill:#F6F0F5;}
	.st319{fill:#A7397C;}
	.st320{fill:#AB3A7E;}
	.st321{fill:#E9B0DC;}
	.st322{fill:#A5307C;}
	.st323{fill:#F5CAF2;}
	.st324{fill:#432A76;}
	.st325{fill:#F3F5EB;}
	.st326{fill:#F3F2F6;}
	.st327{fill:#672D7A;}
	.st328{fill:#F6F4F1;}
	.st329{fill:#F8F5F8;}
	.st330{fill:#F7F6FA;}
	.st331{fill:#F8F2F5;}
	.st332{fill:#F4F4F7;}
	.st333{fill:#F8F5F5;}
	.st334{fill:#F2F4F8;}
	.st335{fill:#F6F4EE;}
	.st336{fill:#EEEFF3;}
	.st337{fill:#3C2572;}
	.st338{fill:#412873;}
	.st339{fill:#412D70;}
	.st340{fill:#F0EBFA;}
	.st341{fill:#F0EBFB;}
	.st342{fill:#F0EFF4;}
	.st343{fill:#432D76;}
	.st344{fill:#3C2574;}
	.st345{fill:#F3F4EE;}
	.st346{fill:#F2F2F1;}
	.st347{fill:#F1EBF4;}
	.st348{fill:#422870;}
	.st349{fill:#443071;}
	.st350{fill:#42306D;}
	.st351{fill:#F3EFF9;}
	.st352{fill:#472E6E;}
	.st353{fill:#CAC3DB;}
	.st354{fill:#D0C4DE;}
	.st355{fill:#402F6D;}
	.st356{fill:#43356D;}
	.st357{fill:#44346C;}
	.st358{fill:#3F2F67;}
	.st359{fill:#56487F;}
	.st360{fill:#3C2967;}
	.st361{fill:#3A246E;}
	.st362{fill:#E9E5F2;}
	.st363{fill:#3C2A66;}
	.st364{fill:#EEF0F3;}
	.st365{fill:#EEEFF7;}
	.st366{fill:#972D71;}
	.st367{fill:#9A2A72;}
	.st368{fill:#9D3376;}
	.st369{fill:#9A3073;}
	.st370{fill:#F1F5F5;}
	.st371{fill:#EFF0F0;}
	.st372{fill:#803977;}
	.st373{fill:#EEF0F2;}
	.st374{fill:#9D347A;}
	.st375{fill:#9A3476;}
	.st376{fill:#903473;}
	.st377{fill:#963370;}
	.st378{fill:#F5EBF5;}
	.st379{fill:#F2E3F0;}
	.st380{fill:#F5F6F3;}
	.st381{fill:#752E75;}
	.st382{fill:#E9DDF4;}
	.st383{fill:#F6F2F7;}
	.st384{fill:#F1F6F6;}
	.st385{fill:#F5F6F7;}
	.st386{fill:#F2F7F4;}
	.st387{fill:#F2F4F9;}
	.st388{fill:#F6F4F7;}
	.st389{fill:#F6F7FB;}
	.st390{fill:#742F76;}
	.st391{fill:#6F2D75;}
	.st392{fill:#692872;}
	.st393{fill:#EFF2F7;}
	.st394{fill:#412C6F;}
	.st395{fill:#542671;}
	.st396{fill:#68477F;}
	.st397{fill:#732D76;}
	.st398{fill:#F7F8F8;}
	.st399{fill:#F3F4F7;}
	.st400{fill:#F7F8F6;}
	.st401{fill:#6C3571;}
	.st402{fill:#703975;}
	.st403{fill:#F5F0F5;}
	.st404{fill:#EDF4F3;}
	.st405{fill:#EDF3F0;}
	.st406{fill:#EEEFF2;}
	.st407{fill:#582D76;}
	.st408{fill:#F3F1F3;}
	.st409{fill:#523170;}
	.st410{fill:#4D2D77;}
	.st411{fill:#4D3076;}
	.st412{fill:#F9F9FA;}
	.st413{fill:#F5F4F9;}
	.st414{fill:#552B73;}
	.st415{fill:#562B77;}
	.st416{fill:#4E276B;}
	.st417{fill:#502770;}
	.st418{fill:#502871;}
	.st419{fill:#F1E9F3;}
	.st420{fill:#F0EBF5;}
	.st421{fill:#4C2F6D;}
	.st422{fill:#502976;}
	.st423{fill:#4D2A73;}
	.st424{fill:#813373;}
	.st425{fill:#F0ECF1;}
	.st426{fill:#EFE8F4;}
	.st427{fill:#402B68;}
	.st428{fill:#462870;}
	.st429{fill:#F1ECF9;}
	.st430{fill:#F0F2F4;}
	.st431{fill:#42246F;}
	.st432{fill:#472A71;}
	.st433{fill:#F2F1F3;}
	.st434{fill:#49346B;}
	.st435{fill:#503C70;}
	.st436{fill:#A290B2;}
	.st437{fill:#806D90;}
	.st438{fill:#9A91A7;}
	.st439{fill:#4B3071;}
	.st440{fill:#F9F5FD;}
	.st441{fill:#50276B;}
	.st442{fill:#F3EFF7;}
	.st443{fill:#53276F;}
	.st444{fill:#EFF1F4;}
	.st445{fill:#452A75;}
	.st446{fill:#463072;}
	.st447{fill:#4B3373;}
	.st448{fill:#53296F;}
	.st449{fill:#512A69;}
	.st450{fill:#8E72A3;}
	.st451{fill:#F7F4FB;}
	.st452{fill:#F2F2F8;}
	.st453{fill:#ECEDF2;}
	.st454{fill:#3C246C;}
	.st455{fill:#39216B;}
	.st456{fill:#39206A;}
	.st457{fill:#3F2675;}
	.st458{fill:#F3F5F8;}
	.st459{fill:#3D2372;}
	.st460{fill:#3D2776;}
	.st461{fill:#3F2E73;}
	.st462{fill:#4C2A69;}
	.st463{fill:#833279;}
	.st464{fill:#F5F4F6;}
	.st465{fill:#923471;}
	.st466{fill:#753074;}
	.st467{fill:#6D2F78;}
	.st468{fill:#6F3777;}
	.st469{fill:#F7EFF6;}
	.st470{fill:#F8F7FA;}
	.st471{fill:#582D78;}
	.st472{fill:#F6F7F5;}
	.st473{fill:#F8F6FA;}
	.st474{fill:#F1F4F4;}
	.st475{fill:#4F2D7A;}
	.st476{fill:#ECEFF1;}
	.st477{fill:#4D317A;}
	.st478{fill:#4A2E78;}
	.st479{fill:#D5D8E4;}
	.st480{fill:#592977;}
	.st481{fill:#F0EEEF;}
	.st482{fill:#F0F4EF;}
	.st483{fill:#F0F4F0;}
	.st484{fill:#EEEEED;}
	.st485{fill:#D0D4E0;}
	.st486{fill:#552A72;}
	.st487{fill:#5A2C7C;}
	.st488{fill:#F3F5F6;}
	.st489{fill:#5F327A;}
	.st490{fill:#5E3979;}
	.st491{fill:#F4EDF2;}
	.st492{fill:#5E2F7A;}
	.st493{fill:#61327A;}
	.st494{fill:#795D89;}
	.st495{fill:#F7F6F8;}
	.st496{fill:#4E317A;}
	.st497{fill:#41246E;}
	.st498{fill:#42266B;}
	.st499{fill:#472C6A;}
	.st500{fill:#41266B;}
	.st501{fill:#EBE8F1;}
	.st502{fill:#612B7E;}
	.st503{fill:#592979;}
	.st504{fill:#5D2A7B;}
	.st505{fill:#F4F7F9;}
	.st506{fill:#5F3277;}
	.st507{fill:#EDEBF2;}
	.st508{fill:#EDEDF6;}
	.st509{fill:#EFEDFB;}
	.st510{fill:#EFF0F1;}
	.st511{fill:#F1F2F0;}
	.st512{fill:#F1F2F1;}
	.st513{fill:#F2F5F1;}
	.st514{fill:#CEC3DE;}
	.st515{fill:#F4F2F9;}
	.st516{fill:#552E70;}
	.st517{fill:#5B287B;}
	.st518{fill:#622E7D;}
	.st519{fill:#522E77;}
	.st520{fill:#4D2873;}
	.st521{fill:#4F2E6E;}
	.st522{fill:#F0F5F2;}
	.st523{fill:#F4F5F3;}
	.st524{fill:#F3F1F8;}
	.st525{fill:#F4F5F9;}
	.st526{fill:#522F78;}
	.st527{fill:#553078;}
	.st528{fill:#F7F9F9;}
	.st529{fill:#F6F7F7;}
	.st530{fill:#4C2572;}
	.st531{fill:#F5F9F5;}
	.st532{fill:#4E2C71;}
	.st533{fill:#502D76;}
	.st534{fill:#4A2D71;}
	.st535{fill:#472B6E;}
	.st536{fill:#EFF1F6;}
	.st537{fill:#923879;}
	.st538{fill:#F9F5F6;}
	.st539{fill:#8D3679;}
	.st540{fill:#C794B5;}
	.st541{fill:#882F70;}
	.st542{fill:#903074;}
	.st543{fill:#F3EAF5;}
	.st544{fill:#F0F3F2;}
	.st545{fill:#8C2F6F;}
	.st546{fill:#F6EFF1;}
	.st547{fill:#C497BC;}
	.st548{fill:#B27EA5;}
	.st549{fill:#CFACCB;}
	.st550{fill:#84387F;}
	.st551{fill:#86407D;}
	.st552{fill:#C7ADC1;}
	.st553{fill:#864682;}
	.st554{fill:#EFEDF5;}
	.st555{fill:#7B316D;}
	.st556{fill:#7C2C70;}
	.st557{fill:#7C346F;}
	.st558{fill:#F1EFF3;}
	.st559{fill:#743C67;}
	.st560{fill:#77266B;}
	.st561{fill:#EEF2F2;}
	.st562{fill:#F3F2F1;}
	.st563{fill:#F4F0F4;}
	.st564{fill:#7B286F;}
	.st565{fill:#7B2F6D;}
	.st566{fill:#ECEDF6;}
	.st567{fill:#7C2C72;}
	.st568{fill:#78316C;}
	.st569{fill:#702C72;}
	.st570{fill:#6F3170;}
	.st571{fill:#AE85B0;}
	.st572{fill:#832E74;}
	.st573{fill:#7E2C6E;}
	.st574{fill:#7D2A71;}
	.st575{fill:#793474;}
	.st576{fill:#7D3076;}
	.st577{fill:#7F3074;}
	.st578{fill:#7C3273;}
	.st579{fill:#7B2E76;}
	.st580{fill:#7E2F78;}
	.st581{fill:#7B3671;}
	.st582{fill:#903379;}
	.st583{fill:#EADAE8;}
	.st584{fill:#912D78;}
	.st585{fill:#F0F4F5;}
	.st586{fill:#F2EFF1;}
	.st587{fill:#8D337A;}
	.st588{fill:#933C7E;}
	.st589{fill:#994884;}
	.st590{fill:#5E2B71;}
	.st591{fill:#602E73;}
	.st592{fill:#613472;}
	.st593{fill:#F1EDF4;}
	.st594{fill:#742A72;}
	.st595{fill:#7A3278;}
	.st596{fill:#752D74;}
	.st597{fill:#9E3075;}
	.st598{fill:#993073;}
	.st599{fill:#EFF4F5;}
	.st600{fill:#F4ECF4;}
	.st601{fill:#712F72;}
	.st602{fill:#713275;}
	.st603{fill:#773376;}
	.st604{fill:#872F77;}
	.st605{fill:#802D7B;}
	.st606{fill:#F8F3F8;}
	.st607{fill:#882E73;}
	.st608{fill:#F5EDF4;}
	.st609{fill:#7A2A75;}
	.st610{fill:#5B2C76;}
	.st611{fill:#562974;}
	.st612{fill:#542A7B;}
	.st613{fill:#512D73;}
	.st614{fill:#A33577;}
	.st615{fill:#F4EBF2;}
	.st616{fill:#A33071;}
	.st617{fill:#9B337B;}
	.st618{fill:#F0F4F4;}
	.st619{fill:#F3F7F8;}
	.st620{fill:#F0F4F3;}
	.st621{fill:#963375;}
	.st622{fill:#9E2D76;}
	.st623{fill:#F4E1F9;}
	.st624{fill:#9F3871;}
	.st625{fill:#F1EEF4;}
	.st626{fill:#8B3A6C;}
	.st627{fill:#F3E7F0;}
	.st628{fill:#F4E8F3;}
	.st629{fill:#956180;}
	.st630{fill:#EEB5D9;}
	.st631{fill:#462670;}
	.st632{fill:#572C70;}
	.st633{fill:#F1ECF3;}
	.st634{fill:#4A2671;}
	.st635{fill:#57286C;}
	.st636{fill:#F3F3F0;}
	.st637{fill:#552F6E;}
	.st638{fill:#3C236B;}
	.st639{fill:#F4F2F6;}
	.st640{fill:#EFEEF3;}
	.st641{fill:#412673;}
	.st642{fill:#F3EEFB;}
	.st643{fill:#472B76;}
	.st644{fill:#452972;}
	.st645{fill:#482F76;}
	.st646{fill:#563E78;}
	.st647{fill:#F7F4F8;}
	.st648{fill:#473173;}
	.st649{fill:#622C72;}
	.st650{fill:#602974;}
	.st651{fill:#632E77;}
	.st652{fill:#EFECF2;}
	.st653{fill:#462A72;}
	.st654{fill:#4D3474;}
	.st655{fill:#642D7D;}
	.st656{fill:#652D7B;}
	.st657{fill:#6A377C;}
	.st658{fill:#47326E;}
	.st659{fill:#F6F6F7;}
	.st660{fill:#542E75;}
	.st661{fill:#F4F3FB;}
	.st662{fill:#F2F4F2;}
	.st663{fill:#5D2D79;}
	.st664{fill:#F3F3EF;}
	.st665{fill:#5D317C;}
	.st666{fill:#5D347F;}
	.st667{fill:#5C3477;}
	.st668{fill:#F6EFF8;}
	.st669{fill:#532A78;}
	.st670{fill:#512A75;}
	.st671{fill:#F1EFF4;}
	.st672{fill:#4F3176;}
	.st673{fill:#F8F1FA;}
	.st674{fill:#533874;}
	.st675{fill:#40266F;}
	.st676{fill:#452C70;}
	.st677{fill:#ECE8EF;}
	.st678{fill:#F1F1F7;}
	.st679{fill:#F5F3FA;}
	.st680{fill:#3C236F;}
	.st681{fill:#EFECEE;}
	.st682{fill:#40296A;}
	.st683{fill:#EBE1F0;}
	.st684{fill:#412774;}
	.st685{fill:#3F2768;}
	.st686{fill:#EEF0F0;}
	.st687{fill:#3F246E;}
	.st688{fill:#3F236D;}
	.st689{fill:#412C70;}
	.st690{fill:#3D2670;}
	.st691{fill:#432878;}
	.st692{fill:#44336F;}
	.st693{fill:#5A4C82;}
	.st694{fill:#4A3B70;}
	.st695{fill:#65558A;}
	.st696{fill:#EBEAF6;}
	.st697{fill:#402C71;}
	.st698{fill:#EEF1ED;}
	.st699{fill:#D2CADA;}
	.st700{fill:#F0F2EE;}
	.st701{fill:#7F3071;}
	.st702{fill:#7C3371;}
	.st703{fill:#7E3477;}
	.st704{fill:#F0F0F0;}
	.st705{fill:#F5F6F8;}
	.st706{fill:#7A356E;}
	.st707{fill:#833979;}
	.st708{fill:#833F77;}
	.st709{fill:#F4F0F1;}
	.st710{fill:#973B79;}
	.st711{fill:#87306F;}
	.st712{fill:#F1F6F2;}
	.st713{fill:#EFF5F3;}
	.st714{fill:#F2F4F1;}
	.st715{fill:#EEF4F2;}
	.st716{fill:#F0EDF4;}
	.st717{fill:#8E2E71;}
	.st718{fill:#8A366F;}
	.st719{fill:#8A346C;}
	.st720{fill:#8F3E75;}
	.st721{fill:#98317A;}
	.st722{fill:#953678;}
	.st723{fill:#F4F6F5;}
	.st724{fill:#F2F4FA;}
	.st725{fill:#672770;}
	.st726{fill:#EDECF4;}
	.st727{fill:#682876;}
	.st728{fill:#632A75;}
	.st729{fill:#622F73;}
	.st730{fill:#53246B;}
	.st731{fill:#532B6D;}
	.st732{fill:#F7F5F7;}
	.st733{fill:#752F72;}
	.st734{fill:#6C3372;}
	.st735{fill:#F6F6F9;}
	.st736{fill:#6C2B72;}
	.st737{fill:#B38BB0;}
	.st738{fill:#F3F9F5;}
	.st739{fill:#F7F2F7;}
	.st740{fill:#F0F1EF;}
	.st741{fill:#F1EFF2;}
	.st742{fill:#4C2C7A;}
	.st743{fill:#662774;}
	.st744{fill:#562F72;}
	.st745{fill:#502D6D;}
	.st746{fill:#F0F2F0;}
	.st747{fill:#4B286B;}
	.st748{fill:#4D246D;}
	.st749{fill:#4C2D69;}
	.st750{fill:#4B2865;}
	.st751{fill:#462C6A;}
	.st752{fill:#47276E;}
	.st753{fill:#F4F7F4;}
	.st754{fill:#492673;}
	.st755{fill:#4E3371;}
	.st756{fill:#F1F0ED;}
	.st757{fill:#4D3775;}
	.st758{fill:#F1F4ED;}
	.st759{fill:#F6F8F8;}
	.st760{fill:#492877;}
	.st761{fill:#482773;}
	.st762{fill:#482A72;}
	.st763{fill:#50226C;}
	.st764{fill:#502968;}
	.st765{fill:#53306C;}
	.st766{fill:#482A77;}
	.st767{fill:#512C68;}
	.st768{fill:#ECEBEE;}
	.st769{fill:#422C71;}
	.st770{fill:#392170;}
	.st771{fill:#402869;}
	.st772{fill:#412C6A;}
	.st773{fill:#EAE7EA;}
	.st774{fill:#402E7B;}
	.st775{fill:#F4F2F1;}
	.st776{fill:#F1F4EE;}
	.st777{fill:#F2EDEF;}
	.st778{fill:#F0F5F5;}
	.st779{fill:#F5F3F3;}
	.st780{fill:#F1F3F6;}
	.st781{fill:#662A74;}
	.st782{fill:#6F2C72;}
	.st783{fill:#6D2A74;}
	.st784{fill:#6B2B72;}
	.st785{fill:#65286F;}
	.st786{fill:#F2EEF5;}
	.st787{fill:#BDB3C5;}
	.st788{fill:#772F71;}
	.st789{fill:#803176;}
	.st790{fill:#F5F7FB;}
	.st791{fill:#F7F7F6;}
	.st792{fill:#EFF5F6;}
	.st793{fill:#902070;}
	.st794{fill:#F5EEF4;}
	.st795{fill:#932B6A;}
	.st796{fill:#F0F4F8;}
	.st797{fill:#862C73;}
	.st798{fill:#EFF2F2;}
	.st799{fill:#AD719F;}
	.st800{fill:#864979;}
	.st801{fill:#472673;}
	.st802{fill:#4D2877;}
	.st803{fill:#973276;}
	.st804{fill:#963778;}
	.st805{fill:#793075;}
	.st806{fill:#672C75;}
	.st807{fill:#68317B;}
	.st808{fill:#672E78;}
	.st809{fill:#7E5A8C;}
	.st810{fill:#6A2E76;}
	.st811{fill:#70307A;}
	.st812{fill:#703077;}
	.st813{fill:#723678;}
	.st814{fill:#F5F3F6;}
	.st815{fill:#5B2F7D;}
	.st816{fill:#522E7D;}
	.st817{fill:#594280;}
	.st818{fill:#562D7E;}
	.st819{fill:#C3BAD4;}
	.st820{fill:#532A79;}
	.st821{fill:#522977;}
	.st822{fill:#EDEFF3;}
	.st823{fill:#F2EEF4;}
	.st824{fill:#F7F6F7;}
	.st825{fill:#592676;}
	.st826{fill:#582C71;}
	.st827{fill:#EDECF3;}
	.st828{fill:#532973;}
	.st829{fill:#EEEAEE;}
	.st830{fill:#553871;}
	.st831{fill:#622C7B;}
	.st832{fill:#612B78;}
	.st833{fill:#5B2D74;}
	.st834{fill:#E7E4EB;}
	.st835{fill:#E2E0E6;}
	.st836{fill:#602C7A;}
	.st837{fill:#632E7B;}
	.st838{fill:#5C3176;}
	.st839{fill:#68327A;}
	.st840{fill:#876994;}
	.st841{fill:#44276F;}
	.st842{fill:#462B72;}
	.st843{fill:#F6F6F4;}
	.st844{fill:#F2F0F7;}
	.st845{fill:#432A69;}
	.st846{fill:#D9D6E1;}
	.st847{fill:#F9FAFC;}
	.st848{fill:#F6ECF9;}
	.st849{fill:#C8C5E1;}
	.st850{fill:#6E6192;}
	.st851{fill:#D1CCED;}
	.st852{fill:#482A73;}
	.st853{fill:#F5F2F7;}
	.st854{fill:#4B2F74;}
	.st855{fill:#462C6F;}
	.st856{fill:#482D76;}
	.st857{fill:#C4BBD4;}
	.st858{fill:#5E4888;}
	.st859{fill:#574081;}
	.st860{fill:#622A82;}
	.st861{fill:#EFEDF2;}
	.st862{fill:#FBF7F9;}
	.st863{fill:#4C2679;}
	.st864{fill:#552F75;}
	.st865{fill:#5D4777;}
	.st866{fill:#756085;}
	.st867{fill:#4D356B;}
	.st868{fill:#913379;}
	.st869{fill:#8D3177;}
	.st870{fill:#A86B9A;}
	.st871{fill:#912F7A;}
	.st872{fill:#933378;}
	.st873{fill:#95347A;}
	.st874{fill:#F5F7F9;}
	.st875{fill:#F4F8F7;}
	.st876{fill:#F6F5F4;}
	.st877{fill:#883D78;}
	.st878{fill:#F5EDF6;}
	.st879{fill:#C69EBF;}
	.st880{fill:#AD709C;}
	.st881{fill:#833D78;}
	.st882{fill:#894982;}
	.st883{fill:#823373;}
	.st884{fill:#843578;}
	.st885{fill:#813574;}
	.st886{fill:#782C69;}
	.st887{fill:#773268;}
	.st888{fill:#F2E9F2;}
	.st889{fill:#EEF3F2;}
	.st890{fill:#F4F0F6;}
	.st891{fill:#792269;}
	.st892{fill:#7C286B;}
	.st893{fill:#EEEFF9;}
	.st894{fill:#752467;}
	.st895{fill:#EFE5F0;}
	.st896{fill:#812B72;}
	.st897{fill:#762A6A;}
	.st898{fill:#833374;}
	.st899{fill:#F1EEF1;}
	.st900{fill:#7B316E;}
	.st901{fill:#7D297A;}
	.st902{fill:#F5E8F9;}
	.st903{fill:#9D6794;}
	.st904{fill:#8E2F75;}
	.st905{fill:#8D3277;}
	.st906{fill:#F2F7F7;}
	.st907{fill:#F6F4F5;}
	.st908{fill:#F4F4FA;}
	.st909{fill:#EFF1F8;}
	.st910{fill:#EDE9F1;}
	.st911{fill:#8E3C7E;}
	.st912{fill:#632C75;}
	.st913{fill:#612F70;}
	.st914{fill:#633274;}
	.st915{fill:#633175;}
	.st916{fill:#F2F1F2;}
	.st917{fill:#5B2D6B;}
	.st918{fill:#5A286F;}
	.st919{fill:#5D2B6E;}
	.st920{fill:#F1EEF2;}
	.st921{fill:#6F266A;}
	.st922{fill:#F5F7F7;}
	.st923{fill:#A774A9;}
	.st924{fill:#8A538F;}
	.st925{fill:#F3F6F6;}
	.st926{fill:#F7EFF5;}
	.st927{fill:#EEF4F1;}
	.st928{fill:#EEF6F5;}
	.st929{fill:#F6EDF5;}
	.st930{fill:#8C316F;}
	.st931{fill:#F7EFF2;}
	.st932{fill:#F6F3F2;}
	.st933{fill:#F5EAF4;}
	.st934{fill:#F2F5F5;}
	.st935{fill:#6E2F73;}
	.st936{fill:#C39EC4;}
	.st937{fill:#86307B;}
	.st938{fill:#F2F6F5;}
	.st939{fill:#EFF5F5;}
	.st940{fill:#8E3579;}
	.st941{fill:#8D3673;}
	.st942{fill:#933177;}
	.st943{fill:#F0F9F5;}
	.st944{fill:#F7EDF8;}
	.st945{fill:#833B6A;}
	.st946{fill:#8B3E72;}
	.st947{fill:#572973;}
	.st948{fill:#F4F0F7;}
	.st949{fill:#F1E6FC;}
	.st950{fill:#492D73;}
	.st951{fill:#EEF5F5;}
	.st952{fill:#912F75;}
	.st953{fill:#EFF2F8;}
	.st954{fill:#9B3071;}
	.st955{fill:#CB8DAF;}
	.st956{fill:#BD7299;}
	.st957{fill:#DCB9D0;}
	.st958{fill:#582A75;}
	.st959{fill:#EFF3F0;}
	.st960{fill:#56296D;}
	.st961{fill:#512E6F;}
	.st962{fill:#552A6D;}
	.st963{fill:#EFEDF0;}
	.st964{fill:#EEEAF3;}
	.st965{fill:#54326C;}
	.st966{fill:#EFF1F1;}
	.st967{fill:#F2F3ED;}
	.st968{fill:#EDE8EE;}
	.st969{fill:#532873;}
	.st970{fill:#5C2C73;}
	.st971{fill:#542D6C;}
	.st972{fill:#5B3370;}
	.st973{fill:#593171;}
	.st974{fill:#562B73;}
	.st975{fill:#EFEDEF;}
	.st976{fill:#4A2975;}
	.st977{fill:#4B2C6A;}
	.st978{fill:#4E3471;}
	.st979{fill:#583575;}
	.st980{fill:#4F2976;}
	.st981{fill:#532A69;}
	.st982{fill:#5B2B70;}
	.st983{fill:#3C216E;}
	.st984{fill:#442775;}
	.st985{fill:#3E2668;}
	.st986{fill:#3F276D;}
	.st987{fill:#B3A3CA;}
	.st988{fill:#E1D5EE;}
	.st989{fill:#4A2A7D;}
	.st990{fill:#473071;}
	.st991{fill:#F5F0FC;}
	.st992{fill:#432F67;}
	.st993{fill:#B2A5CE;}
	.st994{fill:#ADAACE;}
	.st995{fill:#EFF2F3;}
	.st996{fill:#602A74;}
	.st997{fill:#602A7A;}
	.st998{fill:#602A7D;}
	.st999{fill:#BBA7C1;}
	.st1000{fill:#682D77;}
	.st1001{fill:#84608F;}
	.st1002{fill:#46246F;}
	.st1003{fill:#492573;}
	.st1004{fill:#612C7A;}
	.st1005{fill:#5E2976;}
	.st1006{fill:#AD98BE;}
	.st1007{fill:#593278;}
	.st1008{fill:#562F77;}
	.st1009{fill:#583177;}
	.st1010{fill:#EFF3F2;}
	.st1011{fill:#EDF2F5;}
	.st1012{fill:#522D74;}
	.st1013{fill:#5A2A77;}
	.st1014{fill:#F0F5F8;}
	.st1015{fill:#F6F3F8;}
	.st1016{fill:#462F6A;}
	.st1017{fill:#EEEEEF;}
	.st1018{fill:#E9E8EE;}
	.st1019{fill:#442C66;}
	.st1020{fill:#F1F3EF;}
	.st1021{fill:#F1F8F9;}
	.st1022{fill:#F3F7F7;}
	.st1023{fill:#F8F8F9;}
	.st1024{fill:#953279;}
	.st1025{fill:#EDF6F3;}
	.st1026{fill:#F7F3F5;}
	.st1027{fill:#F0F5F6;}
	.st1028{fill:#F5F7FA;}
	.st1029{fill:#F2F6F4;}
	.st1030{fill:#6D2D72;}
	.st1031{fill:#F6F7F8;}
	.st1032{fill:#F8F6FB;}
	.st1033{fill:#602972;}
	.st1034{fill:#5D2D6D;}
	.st1035{fill:#F0ECF2;}
	.st1036{fill:#EEE6F4;}
	.st1037{fill:#F2F2F0;}
	.st1038{fill:#F0F1F2;}
	.st1039{fill:#792F72;}
	.st1040{fill:#F7F6FB;}
	.st1041{fill:#F0F1F4;}
	.st1042{fill:#662D6C;}
	.st1043{fill:#65356A;}
	.st1044{fill:#EDDDEA;}
	.st1045{fill:#66286E;}
	.st1046{fill:#7D70A0;}
	.st1047{fill:#867DA4;}
	.st1048{fill:#4C2977;}
	.st1049{fill:#F7F6F6;}
	.st1050{fill:#F4F2F2;}
	.st1051{fill:#F3F4EF;}
	.st1052{fill:#50246A;}
	.st1053{fill:#EDF0EE;}
	.st1054{fill:#4C246C;}
	.st1055{fill:#E9E9ED;}
	.st1056{fill:#EDE8EC;}
	.st1057{fill:#F3F0F2;}
	.st1058{fill:#4E2267;}
	.st1059{fill:#F1EDF7;}
	.st1060{fill:#EEF0EF;}
	.st1061{fill:#F2EDF3;}
	.st1062{fill:#8D2370;}
	.st1063{fill:#692773;}
	.st1064{fill:#F0F0F5;}
	.st1065{fill:#652871;}
	.st1066{fill:#6D2D73;}
	.st1067{fill:#6B3672;}
	.st1068{fill:#7B2F73;}
	.st1069{fill:#EAECF3;}
	.st1070{fill:#893779;}
	.st1071{fill:#F5F3F4;}
	.st1072{fill:#C8B3C2;}
	.st1073{fill:#8E4582;}
	.st1074{fill:#F3F9F3;}
	.st1075{fill:#EFF2FA;}
	.st1076{fill:#7E3B73;}
	.st1077{fill:#EEF2F5;}
	.st1078{fill:#802A70;}
	.st1079{fill:#EEEDF3;}
	.st1080{fill:#822C6F;}
	.st1081{fill:#892C72;}
	.st1082{fill:#813272;}
	.st1083{fill:#662974;}
	.st1084{fill:#ECEEEE;}
	.st1085{fill:#E0D5E7;}
	.st1086{fill:#C5AFCF;}
	.st1087{fill:#F0F5F0;}
	.st1088{fill:#F7F4F6;}
	.st1089{fill:#F4F4F8;}
	.st1090{fill:#732E7D;}
	.st1091{fill:#F1F5F1;}
	.st1092{fill:#F5F6F2;}
	.st1093{fill:#54317E;}
	.st1094{fill:#572F81;}
	.st1095{fill:#582573;}
	.st1096{fill:#592A73;}
	.st1097{fill:#5D3373;}
	.st1098{fill:#EAF3EE;}
	.st1099{fill:#F1F4F1;}
	.st1100{fill:#6A2F7E;}
	.st1101{fill:#643578;}
	.st1102{fill:#A082AB;}
	.st1103{fill:#6A2D7C;}
	.st1104{fill:#CDC9D9;}
	.st1105{fill:#917EA0;}
	.st1106{fill:#F4F3F3;}
	.st1107{fill:#4B327A;}
	.st1108{fill:#922E75;}
	.st1109{fill:#8E3074;}
	.st1110{fill:#883375;}
	.st1111{fill:#8C3B79;}
	.st1112{fill:#893470;}
	.st1113{fill:#874078;}
	.st1114{fill:#C99FC4;}
	.st1115{fill:#843A74;}
	.st1116{fill:#843275;}
	.st1117{fill:#873377;}
	.st1118{fill:#F1F0F2;}
	.st1119{fill:#C1ADBB;}
	.st1120{fill:#B7A0AF;}
	.st1121{fill:#F8F3F5;}
	.st1122{fill:#F4F9F4;}
	.st1123{fill:#833D79;}
	.st1124{fill:#EFF4F8;}
	.st1125{fill:#F3F7F9;}
	.st1126{fill:#EEF5F1;}
	.st1127{fill:#F4F1FA;}
	.st1128{fill:#ECF3F1;}
	.st1129{fill:#F2E9F4;}
	.st1130{fill:#83386F;}
	.st1131{fill:#813672;}
	.st1132{fill:#F3EFF5;}
	.st1133{fill:#934E88;}
	.st1134{fill:#8C437F;}
	.st1135{fill:#B27BA8;}
	.st1136{fill:#D1ABCB;}
	.st1137{fill:#682871;}
	.st1138{fill:#6A2D75;}
	.st1139{fill:#692B71;}
	.st1140{fill:#6C2971;}
	.st1141{fill:#5D2B73;}
	.st1142{fill:#632C74;}
	.st1143{fill:#613272;}
	.st1144{fill:#5C276C;}
	.st1145{fill:#612A71;}
	.st1146{fill:#5A2B69;}
	.st1147{fill:#622A71;}
	.st1148{fill:#5C296C;}
	.st1149{fill:#EEF4F3;}
	.st1150{fill:#EDF1F4;}
	.st1151{fill:#793273;}
	.st1152{fill:#9C77A0;}
	.st1153{fill:#8B2B6E;}
	.st1154{fill:#F0EDF0;}
	.st1155{fill:#EFE8F2;}
	.st1156{fill:#F0F3F7;}
	.st1157{fill:#F4F6F9;}
	.st1158{fill:#943A77;}
	.st1159{fill:#942E77;}
	.st1160{fill:#8F2C75;}
	.st1161{fill:#8C2B70;}
	.st1162{fill:#742D70;}
	.st1163{fill:#F5EFF6;}
	.st1164{fill:#F2F9F8;}
	.st1165{fill:#EBEDF7;}
	.st1166{fill:#853B76;}
	.st1167{fill:#EBF2F8;}
	.st1168{fill:#E8E5F2;}
	.st1169{fill:#F3F4F9;}
	.st1170{fill:#F5EAF1;}
	.st1171{fill:#87427A;}
	.st1172{fill:#95307B;}
	.st1173{fill:#923C7B;}
	.st1174{fill:#4E2970;}
	.st1175{fill:#532F6C;}
	.st1176{fill:#DDD5E3;}
	.st1177{fill:#A283AE;}
	.st1178{fill:#933278;}
	.st1179{fill:#96367A;}
	.st1180{fill:#923B77;}
	.st1181{fill:#F0F6F2;}
	.st1182{fill:#F5F7F6;}
	.st1183{fill:#F3F6F8;}
	.st1184{fill:#8E2E72;}
	.st1185{fill:#903075;}
	.st1186{fill:#973C7D;}
	.st1187{fill:#562671;}
	.st1188{fill:#532772;}
	.st1189{fill:#55286D;}
	.st1190{fill:#552C71;}
	.st1191{fill:#573171;}
	.st1192{fill:#593276;}
	.st1193{fill:#532769;}
	.st1194{fill:#562E6C;}
	.st1195{fill:#54306B;}
	.st1196{fill:#4E266A;}
	.st1197{fill:#51266F;}
	.st1198{fill:#F1EAF7;}
	.st1199{fill:#F0EFF0;}
	.st1200{fill:#49276C;}
	.st1201{fill:#49236E;}
	.st1202{fill:#442379;}
	.st1203{fill:#462A7B;}
	.st1204{fill:#693079;}
	.st1205{fill:#5A2577;}
	.st1206{fill:#F8F8F7;}
	.st1207{fill:#F6F5F3;}
	.st1208{fill:#F8F9FB;}
	.st1209{fill:#EEF3F3;}
	.st1210{fill:#F1ECF5;}
	.st1211{fill:#872A71;}
	.st1212{fill:#87326F;}
	.st1213{fill:#8B477B;}
	.st1214{fill:#F9F4FB;}
	.st1215{fill:#EEF5F8;}
	.st1216{fill:#F7EDF2;}
	.st1217{fill:#873674;}
	.st1218{fill:#C6AABB;}
	.st1219{fill:#D2C1CA;}
	.st1220{fill:#9B6C90;}
	.st1221{fill:#F0F0F6;}
	.st1222{fill:#5D296F;}
	.st1223{fill:#F0ECF0;}
	.st1224{fill:#EFF0EE;}
	.st1225{fill:#61286B;}
	.st1226{fill:#EDEDF0;}
	.st1227{fill:#792B6F;}
	.st1228{fill:#803A75;}
	.st1229{fill:#62296F;}
	.st1230{fill:#7C276D;}
	.st1231{fill:#F6F5F8;}
	.st1232{fill:#632A73;}
	.st1233{fill:#602E71;}
	.st1234{fill:#603470;}
	.st1235{fill:#542F6E;}
	.st1236{fill:#F1F3ED;}
	.st1237{fill:#8A2C71;}
	.st1238{fill:#8B286F;}
	.st1239{fill:#863273;}
	.st1240{fill:#F1E3EC;}
	.st1241{fill:#F6F0F4;}
	.st1242{fill:#ECF9F4;}
	.st1243{fill:#893579;}
	.st1244{fill:#883A79;}
	.st1245{fill:#823370;}
	.st1246{fill:#EEF1F1;}
	.st1247{fill:#8A336E;}
	.st1248{fill:#92337B;}
	.st1249{fill:#662A75;}
	.st1250{fill:#F8F2FA;}
	.st1251{fill:#693A78;}
	.st1252{fill:#F6F5F9;}
	.st1253{fill:#5F2871;}
	.st1254{fill:#5B2C71;}
	.st1255{fill:#61266F;}
	.st1256{fill:#652772;}
	.st1257{fill:#652677;}
	.st1258{fill:#653176;}
	.st1259{fill:#653475;}
	.st1260{fill:#602971;}
	.st1261{fill:#5D276C;}
	.st1262{fill:#782870;}
	.st1263{fill:#7A2C72;}
	.st1264{fill:#782B6D;}
	.st1265{fill:#782D6F;}
	.st1266{fill:#882A6D;}
	.st1267{fill:#8D2C73;}
	.st1268{fill:#EAE3F3;}
	.st1269{fill:#8B3377;}
	.st1270{fill:#902B76;}
	.st1271{fill:#8D2873;}
	.st1272{fill:#8E3577;}
	.st1273{fill:#913077;}
	.st1274{fill:#85296F;}
	.st1275{fill:#F2F5F9;}
	.st1276{fill:#ECF3FA;}
	.st1277{fill:#782C74;}
	.st1278{fill:#743470;}
	.st1279{fill:#7D3771;}
	.st1280{fill:#E6EDF5;}
	.st1281{fill:#952E77;}
	.st1282{fill:#883172;}
	.st1283{fill:#883078;}
	.st1284{fill:#862D70;}
	.st1285{fill:#843770;}
	.st1286{fill:#7D326A;}
	.st1287{fill:#58256B;}
	.st1288{fill:#562C76;}
	.st1289{fill:#532C67;}
	.st1290{fill:#F6F1F3;}
	.st1291{fill:#F4EEF5;}
	.st1292{fill:#EDE9EE;}
	.st1293{fill:#59346C;}
	.st1294{fill:#D7D0EE;}
	.st1295{fill:#F1F2F5;}
	.st1296{fill:#7F2B71;}
	.st1297{fill:#812F71;}
	.st1298{fill:#813471;}
	.st1299{fill:#852B73;}
	.st1300{fill:#833075;}
	.st1301{fill:#8B507F;}
	.st1302{fill:#EFF5F0;}
	.st1303{fill:#83367A;}
	.st1304{fill:#7D3B75;}
	.st1305{fill:#823B75;}
	.st1306{fill:#F3EEF2;}
	.st1307{fill:#F6E4ED;}
	.st1308{fill:#893178;}
	.st1309{fill:#F6EFF9;}
	.st1310{fill:#EEEEF7;}
	.st1311{fill:#632E6D;}
	.st1312{fill:#F1E9F6;}
	.st1313{fill:#642C71;}
	.st1314{fill:#5D266E;}
	.st1315{fill:#5C2A6B;}
	.st1316{fill:#E6E1E4;}
	.st1317{fill:#F2F0F1;}
	.st1318{fill:#593465;}
	.st1319{fill:#7B2570;}
	.st1320{fill:#F2F7F8;}
	.st1321{fill:#763173;}
	.st1322{fill:#6F3178;}
	.st1323{fill:#6F3077;}
	.st1324{fill:#692F72;}
	.st1325{fill:#662C6E;}
	.st1326{fill:#5A246E;}
	.st1327{fill:#F0F2F1;}
	.st1328{fill:#5D2770;}
	.st1329{fill:#F6F5F6;}
	.st1330{fill:#5D276F;}
	.st1331{fill:#F4F7F5;}
	.st1332{fill:#5B276D;}
	.st1333{fill:#5D2F6C;}
	.st1334{fill:#EDEEED;}
	.st1335{fill:#F1F5F2;}
	.st1336{fill:#F4F2F3;}
	.st1337{fill:#F1F6F3;}
	.st1338{fill:#F4F4FD;}
	.st1339{fill:#612D71;}
	.st1340{fill:#702B6E;}
	.st1341{fill:#732B70;}
	.st1342{fill:#783071;}
	.st1343{fill:#F1F1F5;}
	.st1344{fill:#6A3578;}
	.st1345{fill:#633070;}
	.st1346{fill:#592B6D;}
	.st1347{fill:#F6EEF6;}
	.st1348{fill:#5E236F;}
	.st1349{fill:#A884B6;}
	.st1350{fill:#C6ABCC;}
	.st1351{fill:#5A276B;}
	.st1352{fill:#ECF2FA;}
	.st1353{fill:#5F2F6C;}
	.st1354{fill:#6B2A7A;}
	.st1355{fill:#673478;}
	.st1356{fill:#F2F2F5;}
	.st1357{fill:#7C286F;}
	.st1358{fill:#7E2E77;}
	.st1359{fill:#F0F2F8;}
	.st1360{fill:#EDE8F2;}
	.st1361{fill:#80306B;}
	.st1362{fill:#F3EBF9;}
	.st1363{fill:#813F78;}
	.st1364{fill:#892771;}
	.st1365{fill:#822D6F;}
	.st1366{fill:#82306D;}
	.st1367{fill:#F2E8F4;}
	.st1368{fill:#EAF0F2;}
	.st1369{fill:#733176;}
	.st1370{fill:#F0F1F5;}
	.st1371{fill:#EEF2F3;}
	.st1372{fill:#8C2D79;}
	.st1373{fill:#842870;}
	.st1374{fill:#F6EBF6;}
	.st1375{fill:#7C2B6E;}
	.st1376{fill:#832F75;}
	.st1377{fill:#88317C;}
	.st1378{fill:#7B356A;}
	.st1379{fill:#EEF1F4;}
	.st1380{fill:#632371;}
	.st1381{fill:#621F6F;}
	.st1382{fill:#5D216A;}
	.st1383{fill:#61296D;}
	.st1384{fill:#6A367A;}
	.st1385{fill:#672777;}
	.st1386{fill:#642873;}
	.st1387{fill:#5F296D;}
	.st1388{fill:#77266E;}
	.st1389{fill:#772B70;}
	.st1390{fill:#7E3071;}
	.st1391{fill:#6F3575;}
	.st1392{fill:#F4EEF7;}
	.st1393{fill:#EFE9F1;}
	.st1394{fill:#772C70;}
	.st1395{fill:#6F2D70;}
	.st1396{fill:#782B78;}
	.st1397{fill:#732C73;}
	.st1398{fill:#622B71;}
	.st1399{fill:#62216F;}
	.st1400{fill:#5A2E6F;}
	.st1401{fill:#F7F1FA;}
	.st1402{fill:#602871;}
	.st1403{fill:#662975;}
	.st1404{fill:#623371;}
	.st1405{fill:#5B2C6D;}
	.st1406{fill:#F1F4F5;}
	.st1407{fill:#F1F6F5;}
	.st1408{fill:#F0F2EF;}
	.st1409{fill:#F6F8F6;}
	.st1410{fill:#6F2C7B;}
	.st1411{fill:#F0EBF2;}
	.st1412{fill:#F0EDFC;}
	.st1413{fill:#7D2C79;}
	.st1414{fill:#762E76;}
	.st1415{fill:#7F3176;}
	.st1416{fill:#77386D;}
	.st1417{fill:#693074;}
	.st1418{fill:#60266E;}
	.st1419{fill:#F4EFFC;}
	.st1420{fill:#692A75;}
	.st1421{fill:#6D387B;}
	.st1422{fill:#693276;}
	.st1423{fill:#FCEEFD;}
	.st1424{fill:#F2F5F7;}
	.st1425{fill:#F1F8F4;}
	.st1426{fill:#F0F6F5;}
	.st1427{fill:#F7F5F6;}
	.st1428{fill:#793578;}
	.st1429{fill:#7C3775;}
	.st1430{fill:#E9E8F1;}
	.st1431{fill:#EFF4F7;}
	.st1432{fill:#F4F1FB;}
	.st1433{fill:#782F76;}
	.st1434{fill:#7B307D;}
	.st1435{fill:#F2EBF6;}
	.st1436{fill:#7C2872;}
	.st1437{fill:#F0EAEE;}
	.st1438{fill:#652E77;}
	.st1439{fill:#F3F7FA;}
	.st1440{fill:#68286D;}
	.st1441{fill:#6D2970;}
	.st1442{fill:#662A67;}
	.st1443{fill:#F4F3FC;}
	.st1444{fill:#682F6E;}
	.st1445{fill:#682F63;}
	.st1446{fill:#833D7B;}
	.st1447{fill:#F6EAFE;}
	.st1448{fill:#F0F2F6;}
	.st1449{fill:#793F77;}
	.st1450{fill:#70306A;}
	.st1451{fill:#EEEBF3;}
	.st1452{fill:#6E356E;}
	.st1453{fill:#7A3A74;}
	.st1454{fill:#77296F;}
	.st1455{fill:#712F6D;}
	.st1456{fill:#835281;}
	.st1457{fill:#D9B3E5;}
	.st1458{fill:#EBE1EF;}
	.st1459{fill:#74326F;}
	.st1460{fill:#783174;}
	.st1461{fill:#642D74;}
	.st1462{fill:#FFFEFF;}
	.st1463{fill:#503C8A;}
	.st1464{fill:#6F3984;}
</style>
<g>
	<path class="st1463" d="M155.06,110.81c2.15-0.18,4.3-0.08,6.45,0.02c0.04,0.04,0.08,0.08,0.12,0.12
		c0.07,4.06,0.11,8.13,0.08,12.19c-0.03,5.19-0.01,10.38,0.02,15.57c0,0.4-0.13,0.48-0.48,0.48c-1.79,0-3.59,0.01-5.38,0.03
		c-0.38,0.01-0.6-0.18-0.82-0.44c-3.32-3.94-6.56-7.94-9.8-11.95c-0.74-0.91-1.54-1.78-2.31-2.67c-0.12-0.13-0.21-0.39-0.41-0.33
		c-0.26,0.09-0.13,0.37-0.13,0.55c-0.02,4.42-0.03,8.84-0.04,13.25c0,0.47-0.02,0.94-0.03,1.41c-0.04,0.02-0.06,0.05-0.07,0.09
		c-2.28,0.02-4.57,0.04-6.85,0.07c-0.47,0.01-0.38-0.32-0.38-0.58c0-3.99,0.01-7.98,0.01-11.97c0-4.93,0-9.86,0-14.79
		c0-0.26,0.02-0.51,0.03-0.77c0.02-0.06,0.05-0.12,0.07-0.18c0.02-0.02,0.03-0.05,0.05-0.05c2.04-0.15,4.08-0.06,6.12-0.03
		c0.04,0,0.07,0.06,0.11,0.09c0.06,0.06,0.11,0.11,0.17,0.17c2.23,2.72,4.47,5.44,6.7,8.17c1.89,2.3,3.78,4.61,5.66,6.91
		c0.07,0.09,0.14,0.18,0.35,0.2c0-1.82,0-3.64,0-5.46c0-3.13-0.01-6.26-0.01-9.38c0-0.23-0.14-0.53,0.17-0.7
		C154.66,110.82,154.86,110.81,155.06,110.81z"/>
	<path class="st1464" d="M4.95,130.62c0-2.66,0.02-5.31-0.01-7.97c-0.01-0.54,0.24-0.64,0.67-0.64c2.12-0.02,4.25-0.03,6.37-0.06
		c0.56-0.01,0.45,0.38,0.45,0.68c0.02,2.4,0.02,4.8,0.02,7.19c0,0.96-0.01,1.93-0.02,2.89c0,0.28,0,0.51,0.39,0.51
		c1.96,0.01,3.93,0.19,5.87,0.01c3.36-0.32,6.15-2.07,7.05-5.79c0.85-3.5-0.18-7.26-3.24-9.25c-1.46-0.95-3.1-1.4-4.8-1.43
		c-3.78-0.07-7.55-0.02-11.33-0.01c-1.28,0-1.27,0.01-1.27-1.29c0-1.39,0.01-2.77-0.02-4.16c-0.01-0.37,0.09-0.46,0.47-0.48
		c4.43-0.24,8.86-0.12,13.29,0.04c3.19,0.11,6.25,0.89,8.95,2.71c2,1.35,3.38,3.18,4.43,5.36c1.05,2.18,1.42,4.45,1.32,6.77
		c-0.07,1.66-0.36,3.31-1,4.93c-0.95,2.39-2.32,4.39-4.42,5.84c-1.75,1.21-3.76,1.86-5.84,2.29c-1.26,0.26-2.52,0.45-3.83,0.44
		c-4.27-0.03-8.55-0.02-12.82,0c-0.52,0-0.71-0.08-0.7-0.68C4.97,135.88,4.94,133.25,4.95,130.62
		C4.94,130.62,4.94,130.62,4.95,130.62z"/>
	<path class="st1463" d="M178.73,110.81c0.35-0.14,0.71-0.1,1.07-0.08c0.04,0,0.07,0,0.11-0.01c1.99-0.01,3.99-0.1,5.97,0.12
		c0.01,0.18-0.05,0.37,0.1,0.52c0.01,3.55,0.02,7.1,0.04,10.65c0,0.24-0.15,0.58,0.15,0.71c0.35,0.14,0.39-0.27,0.57-0.44
		c1.9-1.79,3.62-3.75,5.41-5.65c1.75-1.87,3.66-3.59,5.28-5.58c0.31-0.38,0.74-0.34,1.07-0.35c1.92-0.04,3.84,0,5.76,0.01
		c0.5,0,0.99,0.01,1.49,0.01c0.08,0.03,0.15,0.06,0.23,0.08c0.15,0.33-0.15,0.47-0.3,0.63c-3.39,3.66-6.79,7.32-10.18,10.97
		c-0.78,0.84-0.79,0.83-0.12,1.72c1.97,2.58,3.99,5.13,5.89,7.75c1.62,2.23,3.38,4.34,5.05,6.53c0.15,0.19,0.41,0.39,0.28,0.65
		c-0.12,0.24-0.43,0.12-0.65,0.12c-2.41,0.01-4.82-0.01-7.22,0.02c-0.45,0-0.75-0.12-1.02-0.47c-1.94-2.48-3.89-4.96-5.84-7.44
		c-0.6-0.76-1.18-1.53-1.79-2.28c-0.44-0.53-0.79-0.55-1.18-0.01c-0.67,0.92-1.52,1.66-2.32,2.45c-0.37,0.36-0.52,0.74-0.51,1.25
		c0.02,1.95,0,3.9,0.03,5.85c0.01,0.48-0.1,0.65-0.61,0.64c-2.12-0.03-4.25-0.03-6.37,0c-0.52,0.01-0.59-0.16-0.59-0.64
		c0.02-5.83,0-11.66,0-17.49c0-3.39,0.01-6.78,0.02-10.17c0,0,0,0.01,0,0.01c0.06-0.03,0.12-0.06,0.18-0.09
		C178.7,110.82,178.73,110.81,178.73,110.81z"/>
	<path class="st1464" d="M37.75,124.79c-0.18-4.49,0.07-8.98-0.08-13.47c-0.02-0.48,0.2-0.54,0.58-0.54c2.69,0,5.38-0.02,8.07-0.02
		c4.3,0,8.61,0.04,12.91,0.02c0.63,0,0.81,0.16,0.79,0.79c-0.05,1.46,0,2.93-0.03,4.4c-0.01,0.38-0.11,0.67-0.7,0.67
		c-4.49-0.04-8.97-0.02-13.46-0.04c-0.51,0-0.7,0.09-0.68,0.64c0.04,1.36,0.03,2.73,0,4.09c-0.01,0.51,0.18,0.62,0.66,0.62
		c3.85-0.02,7.7,0,11.54-0.02c0.54,0,0.73,0.11,0.72,0.69c-0.03,1.44,0.01,2.89,0.05,4.34c0.01,0.41-0.08,0.59-0.54,0.58
		c-3.92-0.02-7.84-0.01-11.76-0.04c-0.54,0-0.72,0.07-0.7,0.68c0.06,1.5,0.06,3.01,0,4.51c-0.03,0.67,0.21,0.75,0.8,0.75
		c4.63-0.01,9.25,0.03,13.88,0.02c0.63,0,0.84,0.18,0.78,0.8c-0.07,0.86,0.03,1.72-0.1,2.59c-0.09,0.62,0.18,1.24,0.13,1.88
		c-0.03,0.35-0.1,0.48-0.49,0.48c-7.32-0.01-14.64-0.01-21.96-0.02c-0.24,0-0.53,0.1-0.5-0.36c0.17-2.7,0.03-5.4,0.06-8.11
		C37.77,128.74,37.75,126.77,37.75,124.79z"/>
	<path class="st1463" d="M128.3,124.47c0.44-0.14,0.89-0.1,1.34-0.06c0.09,0.03,0.17,0.07,0.26,0.1c0.14,0.57,0.12,1.16,0.1,1.74
		c-0.11,2.99-0.08,5.97-0.05,8.96c0.01,0.91-0.36,1.46-1.16,1.87c-1.71,0.89-3.55,1.45-5.35,2.1c-1.22,0.44-2.5,0.47-3.77,0.57
		c-2.58,0.2-5.12-0.11-7.5-1.04c-2.4-0.94-4.54-2.37-6.15-4.47c-1.53-2-2.76-4.17-3.1-6.67c-0.25-1.82-0.25-3.69,0.1-5.53
		c0.24-1.28,0.55-2.53,1.15-3.68c1.32-2.54,3.23-4.54,5.71-5.99c2.36-1.37,4.95-1.94,7.65-2.11c2.88-0.18,5.63,0.29,8.28,1.41
		c1.78,0.75,3.19,1.97,4.48,3.37c0.23,0.25,0.19,0.4-0.06,0.63c-1.35,1.21-2.68,2.44-4,3.69c-0.37,0.35-0.54,0.05-0.75-0.13
		c-1.08-0.92-2.21-1.76-3.57-2.23c-4.56-1.59-9.37,0.27-11.05,5.03c-0.57,1.61-0.45,3.35-0.22,5.06c0.22,1.6,0.99,2.94,2.07,4.03
		c1.57,1.59,3.54,2.42,5.84,2.47c1.46,0.03,2.83-0.26,4.17-0.8c0.39-0.15,0.53-0.36,0.52-0.78c-0.03-2.23-0.04-4.47-0.06-6.7
		c-0.01-0.89-0.02-0.9,0.89-0.88c1.13,0.02,2.26,0.06,3.4,0.1C127.74,124.49,128.02,124.48,128.3,124.47z"/>
	<path class="st1464" d="M76.26,110.19c2.68,0.15,5.94,0.56,8.95,2.1c0.48,0.25,0.58,0.48,0.4,0.99c-0.5,1.4-0.85,2.85-1.37,4.25
		c-0.2,0.54-0.39,0.68-0.96,0.42c-2.07-0.95-4.23-1.55-6.52-1.81c-1.55-0.18-2.99-0.05-4.4,0.56c-0.86,0.37-1.43,1.01-1.51,1.95
		c-0.08,0.99,0.55,1.61,1.34,2.05c0.97,0.54,2.05,0.81,3.11,1.08c1.76,0.45,3.54,0.83,5.28,1.36c1.57,0.47,3.08,1.09,4.37,2.16
		c1.36,1.13,2,2.61,2.19,4.31c0.46,4.05-1.94,7.53-5.6,8.96c-2.8,1.09-5.73,1.42-8.65,1.12c-3.14-0.32-6.24-1.04-9.05-2.62
		c-0.56-0.32-0.77-0.54-0.44-1.23c0.62-1.3,1.09-2.67,1.61-4.02c0.33-0.84,0.47-0.87,1.27-0.4c2.83,1.7,5.84,2.76,9.2,2.62
		c0.97-0.04,1.91-0.28,2.78-0.69c0.7-0.33,1.29-0.76,1.36-1.64c0.08-1.09-0.26-1.92-1.28-2.44c-0.93-0.48-1.94-0.71-2.94-0.98
		c-2.52-0.67-5.14-1.03-7.47-2.33c-1.7-0.95-3.2-2.05-3.95-3.96c-0.26-0.66-0.29-1.31-0.31-1.97c-0.03-1.1-0.11-2.24,0.23-3.29
		c0.49-1.53,1.27-2.96,2.6-3.92C69.22,110.91,72.33,110.2,76.26,110.19z"/>
	<path class="st1463" d="M226.88,116.65c-1.52,0.11-3.04,0.01-4.56-0.02c-0.46-0.03-0.93-0.08-1.39,0.02
		c-0.26,0.06-0.52,0.07-0.78,0.01c0,0-0.05-0.03-0.05-0.03l-0.05,0.03c-0.17,0.05-0.33,0.06-0.49-0.03
		c-0.03-0.02-0.06-0.02-0.09-0.02c-0.24-0.05-0.18-0.23-0.18-0.39c-0.01-1.68-0.02-3.35-0.03-5.03c0-0.16-0.01-0.33,0.2-0.4
		c0.05,0.01,0.09-0.01,0.11-0.05c0.45-0.02,0.89-0.04,1.34-0.04c7.36,0.01,14.71,0.02,22.07,0.03c0.52,0,1.04-0.01,1.55-0.01
		c0.24,0,0.5-0.02,0.47,0.35c0,0.13-0.01,0.26-0.01,0.39c0.04,1.64,0.08,3.28,0.11,4.92c0.01,0.44-0.37,0.35-0.63,0.35
		c-2.6,0.01-5.19,0.05-7.79,0c-0.66-0.01-0.76,0.18-0.76,0.78c0.02,7.01,0.01,14.01,0.02,21.02c0,0.5-0.07,0.69-0.64,0.68
		c-2.08-0.04-4.15-0.03-6.23-0.01c-0.49,0-0.72-0.03-0.72-0.67c0.04-7.1,0.03-14.2,0.04-21.3c0-0.25-0.01-0.47-0.31-0.55
		C227.67,116.56,227.27,116.59,226.88,116.65z"/>
	<path class="st1463" d="M216.46,110.95c0.04,2.25,0.11,4.51,0.12,6.76c0,6.42-0.03,12.84-0.05,19.26c0,0.59-0.05,1.17-0.03,1.76
		c0.01,0.38-0.13,0.47-0.49,0.47c-2.15-0.02-4.3-0.02-6.45,0c-0.49,0.01-0.63-0.11-0.63-0.62c0.01-3.36-0.01-6.72-0.02-10.09
		c-0.01-5.41,0-10.82-0.01-16.22c0-1.57-0.01-1.57,1.63-1.56c1.89,0.01,3.78,0.03,5.66,0.05
		C216.22,110.91,216.32,110.96,216.46,110.95z"/>
	<path class="st1464" d="M220.92,116.66c0.46-0.1,0.93-0.05,1.39-0.02"/>
	<path class="st1464" d="M128.3,124.47c-0.28,0.01-0.56,0.02-0.84,0.02"/>
	<path class="st1464" d="M155.06,110.81c-0.2,0.01-0.4,0.01-0.6,0.02"/>
	<path class="st1464" d="M244.98,111.46c0-0.13,0.01-0.26,0.01-0.39"/>
	<path class="st1464" d="M216.46,110.95c-0.14,0-0.24-0.04-0.26-0.2C216.36,110.72,216.44,110.8,216.46,110.95z"/>
	<path class="st1464" d="M129.9,124.51c-0.09-0.03-0.17-0.07-0.26-0.1C129.77,124.33,129.86,124.34,129.9,124.51z"/>
	<path class="st1464" d="M185.98,111.37c-0.16-0.15-0.09-0.34-0.1-0.52C186.12,110.98,185.98,111.19,185.98,111.37z"/>
	<path class="st1464" d="M205.97,110.81c-0.08-0.03-0.15-0.06-0.23-0.08C205.83,110.7,205.93,110.68,205.97,110.81z"/>
	<path class="st1464" d="M161.63,110.95c-0.04-0.04-0.08-0.08-0.12-0.12C161.6,110.82,161.64,110.86,161.63,110.95z"/>
	<polygon class="st1464" points="220.04,116.67 220.09,116.64 220.14,116.67 220.09,116.69 	"/>
	<path class="st1464" d="M219.46,116.62c0.03,0,0.06,0,0.09,0.02c0,0-0.05,0.02-0.05,0.02L219.46,116.62z"/>
	<path class="st1464" d="M141.57,111.09c-0.06-0.06-0.11-0.11-0.17-0.17C141.46,110.97,141.52,111.03,141.57,111.09z"/>
	<path class="st1464" d="M135.13,110.91c-0.02,0.06-0.05,0.12-0.07,0.18C135.08,111.04,135.11,110.98,135.13,110.91z"/>
	<path class="st1464" d="M178.51,110.91C178.51,110.91,178.52,110.91,178.51,110.91c-0.01-0.01-0.03-0.02-0.04-0.03
		C178.49,110.89,178.5,110.9,178.51,110.91z"/>
	<path class="st1464" d="M219.56,110.75c-0.03,0.04-0.06,0.06-0.11,0.05C219.49,110.78,219.53,110.77,219.56,110.75z"/>
	<path class="st1464" d="M179.91,110.73c-0.04,0-0.07,0-0.11,0.01C179.83,110.71,179.87,110.7,179.91,110.73z"/>
	<polygon class="st1464" points="178.73,110.81 178.7,110.82 178.71,110.78 	"/>
	<path class="st1464" d="M142.24,139.14c0.01-0.04,0.03-0.07,0.07-0.09C142.35,139.13,142.31,139.15,142.24,139.14z"/>
	<path class="st1464" d="M98.6,123.92c0,0-0.01,0-0.01,0c0-0.42,0-0.85,0-1.27c0-3.72-0.01-7.43,0-11.15c0-0.46-0.04-0.76-0.63-0.75
		c-2.03,0.02-4.06,0.02-6.09-0.03c-0.68-0.02-0.88,0.19-0.88,0.88c0.04,8.8,0.06,17.59,0.08,26.39c0,0.21,0.01,0.43-0.06,0.62
		c-0.21,0.53,0.06,0.59,0.49,0.58c2.08-0.01,4.16-0.03,6.23,0.01c0.68,0.01,0.86-0.31,0.87-0.88c0.01-0.73-0.02-1.46-0.02-2.19
		C98.61,132.06,98.6,127.99,98.6,123.92z"/>
</g>
</svg>
