<?xml version="1.0" encoding="utf-8"?>
<!-- Generator: Adobe Illustrator 27.5.0, SVG Export Plug-In . SVG Version: 6.00 Build 0)  -->
<svg version="1.1" id="Layer_1" xmlns="http://www.w3.org/2000/svg" xmlns:xlink="http://www.w3.org/1999/xlink" x="0px" y="0px"
	 viewBox="0 0 250 250" style="enable-background:new 0 0 250 250;" xml:space="preserve">
<style type="text/css">
	.st0{fill:#FFFEFF;}
	.st1{fill:#54469F;}
	.st2{fill:#010101;}
</style>
<g>
	<path class="st1" d="M40.64,153.66c-2.64,0.16-5.27-0.41-7.88-1.15c-6.68-1.9-11.9-5.79-15.76-11.49
		c-1.65-2.42-2.75-5.15-3.66-7.92c-0.93-2.83-1.03-5.78-0.97-8.73c0.03-1.5-0.04-3.02,0.36-4.49c0.57-2.12,1.17-4.23,1.99-6.27
		c1.53-3.81,3.97-7,6.94-9.8c3.51-3.31,7.66-5.5,12.33-6.68c1.64-0.41,3.31-0.76,5.04-0.78c1.28-0.01,2.55-0.12,3.85,0.01
		c1.97,0.2,3.89,2.21,3.96,4.22c0.04,1.33-0.43,2.55-0.76,3.79c-0.49,1.89-0.7,3.79-0.25,5.71c0.23,0.99,0.66,1.95,1.39,2.69
		c0.41,0.42,0.22,0.64-0.06,0.95c-1.31,1.43-2.67,2.82-3.92,4.3c-2.59,3.08-5.32,6.04-8.02,9.02c-1.87,2.07-3.69,4.18-5.56,6.25
		c-0.37,0.41-0.4,0.63,0.04,1.01c1.99,1.7,3.98,3.39,5.9,5.16c1.57,1.44,3.1,2.91,4.85,4.15c0.19,0.13,0.33,0.33,0.54,0.05
		c0.98-1.28,2.22-2.33,3.24-3.57c0.99-1.21,2.2-2.23,3.11-3.51c0.37-0.52,0.73-0.39,1.05-0.01c1.24,1.49,2.55,2.93,3.68,4.5
		c1.68,2.32,2.04,4.89,0.93,7.58c-0.77,1.88-2.34,2.95-4.12,3.73C46.27,153.54,43.53,153.74,40.64,153.66z M20.93,114.71
		c0,2.1,2.04,4.48,3.9,4.32c2.56-0.22,4.41-1.45,4.47-3.99c0.06-2.93-1.8-4.46-4.56-4.44C23.03,110.62,20.8,112.58,20.93,114.71z
		 M35.83,110.43c2.21-0.14,4.3-1.79,4.28-4.19c-0.03-2.47-1.72-4.15-4.16-4.2c-2.31-0.05-4.23,1.84-4.24,4.11
		C31.7,108.58,34.05,110.48,35.83,110.43z M21.59,132.33c1.88,0.05,4.07-1.3,4.1-3.89c0.03-2.22-1.71-4.07-3.6-4.21
		c-3.23-0.24-4.55,2.04-4.58,4.1C17.47,130.57,19.3,132.33,21.59,132.33z"/>
	<path class="st1" d="M40.39,140.5c-2.48-1.94-4.65-4.17-7.05-6.16c-0.54-0.45-0.58-0.77-0.08-1.25c0.43-0.41,0.82-0.87,1.17-1.35
		c0.31-0.44,0.57-0.38,0.9-0.05c0.46,0.45,0.95,0.87,1.41,1.33c0.45,0.45,0.69,0.07,0.97-0.21c0.36-0.35,0.02-0.51-0.2-0.7
		c-0.5-0.44-1.01-0.89-1.52-1.32c-0.26-0.21-0.33-0.37-0.05-0.65c0.62-0.64,1.2-1.31,1.79-1.98c0.3-0.35,0.59-0.41,0.93-0.05
		c0.41,0.43,0.89,0.8,1.26,1.26c0.41,0.52,0.61,0.1,0.88-0.12c0.36-0.29,0.26-0.55-0.05-0.78c-0.53-0.38-0.98-0.85-1.44-1.29
		c-0.29-0.28-0.35-0.48-0.04-0.8c0.54-0.55,1.03-1.15,1.55-1.72c0.52-0.57,0.77-0.57,1.34,0c0.3,0.3,0.62,0.58,0.9,0.89
		c0.29,0.31,0.6,0.25,0.85,0.02c0.28-0.26,0.13-0.54-0.11-0.77c-0.41-0.4-0.79-0.83-1.24-1.18c-0.37-0.28-0.4-0.55-0.11-0.85
		c0.64-0.66,1.33-1.27,1.88-2.01c0.24-0.31,0.44-0.05,0.6,0.09c0.41,0.36,0.8,0.74,1.2,1.12c0.25,0.24,0.52,0.6,0.86,0.24
		c0.28-0.3,0.3-0.76,0.01-1.08c-0.39-0.44-0.82-0.87-1.3-1.2c-0.37-0.25-0.32-0.37-0.07-0.65c0.62-0.67,1.21-1.37,1.81-2.07
		c0.24-0.28,0.44-0.24,0.68,0c0.35,0.35,0.73,0.68,1.09,1.02c0.32,0.31,0.69,0.63,1.07,0.18c0.37-0.44-0.1-0.71-0.36-0.97
		c-0.39-0.38-0.8-0.74-1.22-1.1c-0.21-0.18-0.25-0.31-0.04-0.54c0.6-0.66,1.18-1.34,1.75-2.04c0.33-0.41,0.61-0.42,0.96-0.04
		c0.36,0.38,0.76,0.72,1.12,1.1c0.25,0.26,0.51,0.34,0.76,0.04c0.23-0.27,0.46-0.57,0.07-0.9c-0.45-0.39-0.87-0.83-1.37-1.15
		c-0.36-0.23-0.37-0.43-0.14-0.7c0.62-0.75,1.27-1.47,1.87-2.22c0.25-0.31,0.43-0.16,0.61,0.02c0.44,0.4,0.9,0.79,1.29,1.24
		c0.4,0.46,0.76,0.25,1.07-0.01c0.41-0.34,0.11-0.63-0.16-0.87c-0.47-0.41-0.92-0.84-1.43-1.19c-0.33-0.23-0.27-0.46-0.09-0.68
		c0.65-0.76,1.31-1.49,1.98-2.23c0.23-0.26,0.47-0.19,0.71,0.02c0.51,0.44,1.03,0.86,1.55,1.29c0.24,0.2,0.47,0.43,0.74,0.05
		c0.21-0.31,0.32-0.6-0.06-0.89c-0.45-0.35-0.88-0.73-1.3-1.11c-0.43-0.39-0.47-0.77,0-1.19c0.84-0.75,1.49-1.67,2.15-2.57
		c0.34-0.46,0.54-0.44,0.92-0.12c1.82,1.5,3.66,3,5.5,4.48c0.52,0.42,1.06,0.83,1.61,1.22c0.36,0.25,0.44,0.45,0.12,0.81
		c-1.86,2.1-3.71,4.22-5.55,6.34c-2.59,2.99-5.1,6.04-7.76,8.96c-3.67,4.03-7,8.35-10.8,12.26c-1.28,1.32-2.29,2.86-3.64,4.12
		C40.86,140.08,40.6,140.31,40.39,140.5z M63.73,108.28c-0.02-0.86-0.42-1.19-1.42-1.17c-0.69,0.01-1.12,0.47-1.11,1.18
		c0,0.61,0.44,1.25,0.84,1.22C63.14,109.44,63.75,109,63.73,108.28z"/>
	<path class="st2" d="M81.24,111.96c1.24-0.14,2.49-0.04,3.73-0.06c1.94-0.02,3.89-0.05,5.83,0.01c2.59,0.08,5.05,0.7,7.17,2.22
		c2.05,1.47,3.3,3.51,3.87,5.98c0.69,3,0.28,5.82-1.24,8.47c-1.42,2.46-3.77,3.68-6.37,4.49c-1.28,0.4-2.6,0.5-3.94,0.44
		c-2.77-0.12-5.53-0.07-8.3,0.02c-0.72,0.02-0.94-0.14-0.9-0.87c0.26-5.71,0.05-11.42,0.13-17.13c0.02-1.17,0-2.34,0-3.5
		c0,0,0.04-0.03,0.04-0.03L81.24,111.96z M86.05,122.71C86.05,122.71,86.05,122.71,86.05,122.71c0,2.06,0.01,4.12-0.01,6.18
		c0,0.44,0.09,0.63,0.58,0.59c1.73-0.13,3.46,0.07,5.21-0.09c2-0.19,3.51-1.07,4.52-2.72c1.06-1.75,1.26-3.62,0.83-5.67
		c-0.65-3.11-3.25-4.78-5.97-4.9c-1.52-0.07-3.04,0.01-4.56-0.02c-0.49-0.01-0.62,0.12-0.61,0.61
		C86.07,118.69,86.05,120.7,86.05,122.71z"/>
	<path class="st2" d="M161.74,130.67c-1.06,1.15-2.16,1.85-3.53,2.18c-2.84,0.7-6.3-0.58-7.84-3.06c-2.08-3.34-2.06-6.69,0.17-9.94
		c1.5-2.19,4.58-3.46,7.28-2.91c1.26,0.25,2.38,0.68,3.34,1.54c0.22,0.2,0.55,0.28,0.84,0.42c0.13-0.26,0.09-0.51,0.05-0.73
		c-0.17-0.88-0.18-0.87,0.68-0.89c1.05-0.02,2.09-0.05,3.14-0.09c0.35-0.01,0.57,0.01,0.56,0.46c-0.04,1.42-0.08,2.83-0.07,4.25
		c0.01,2.94,0.11,5.88,0.04,8.81c-0.05,1.84-0.08,3.72-1.03,5.42c-1.05,1.88-2.68,2.98-4.72,3.55c-2.65,0.74-5.27,0.63-7.86-0.31
		c-0.81-0.29-1.57-0.69-2.28-1.19c-0.39-0.28-0.55-0.58-0.25-1.06c0.43-0.71,0.81-1.46,1.19-2.2c0.2-0.4,0.41-0.38,0.75-0.15
		c1.45,1,3.04,1.71,4.83,1.59c1.57-0.11,3.21-0.28,4.15-1.83C161.84,133.39,161.81,132.14,161.74,130.67z M153.69,125.08
		c-0.29,2.32,1.82,4.24,3.79,4.11c2.42-0.16,4.48-1.26,4.29-4.6c-0.11-1.97-1.25-3.78-3.95-3.78
		C155.22,120.82,153.49,122.7,153.69,125.08z"/>
	<path class="st1" d="M61.1,143.23c-1.4,0-2.79-0.01-4.19,0c-0.46,0-0.68-0.15-0.86-0.61c-1.19-3.11-2.95-5.89-5.03-8.48
		c-0.26-0.33-0.14-0.47,0.08-0.72c1.36-1.61,2.74-3.2,4.04-4.86c1.59-2.04,3.1-4.15,4.66-6.21c0.19-0.25,0.35-0.76,0.71-0.65
		c0.34,0.11,0.2,0.6,0.2,0.94c0,2.66-0.01,5.32,0,7.98c0,0.55-0.16,0.9-0.7,1.15c-0.9,0.43-1.59,2-1.34,2.83
		c0.44,1.41,1.71,2.36,2.98,2.22c1.11-0.12,2.01-1.17,2.11-2.27c0.12-1.33-0.38-2.25-1.54-2.85c-0.25-0.13-0.27-0.31-0.27-0.55
		c0.02-2.96,0.02-5.91,0.04-8.87c0-0.23-0.06-0.56,0.23-0.63c0.24-0.06,0.35,0.24,0.48,0.41c1.35,1.75,2.65,3.53,3.94,5.32
		c1.36,1.9,2.85,3.71,4.31,5.53c0.45,0.56,0.54,0.99,0.08,1.64c-1.82,2.59-3.76,5.13-4.75,8.2c-0.14,0.45-0.49,0.44-0.84,0.44
		c-1.45,0.01-2.89,0-4.34,0C61.1,143.21,61.1,143.22,61.1,143.23z"/>
	<path class="st2" d="M115.3,126.82c-1.77,0-3.54,0.03-5.31-0.02c-0.64-0.02-0.74,0.23-0.54,0.72c0.35,0.88,1.98,2.37,3.26,2.31
		c1.45-0.07,2.85-0.09,4.17-0.82c0.36-0.2,0.55-0.84,1.04-0.59c0.35,0.17,0.56,0.61,0.83,0.93c0.19,0.23,0.34,0.48,0.55,0.68
		c1.18,1.1,0.78,1.04-0.16,1.85c-1.3,1.13-2.92,1.54-4.6,1.81c-2.49,0.4-4.68-0.3-6.7-1.67c-1.84-1.24-2.77-3.1-3.19-5.17
		c-0.86-4.19,1.27-8.37,5.88-9.7c2.51-0.73,5.02-0.4,7.25,0.94c1.86,1.12,2.98,2.89,3.45,5.04c0.23,1.05,0.18,2.11,0.17,3.17
		c0,0.44-0.16,0.52-0.56,0.52C118.99,126.81,117.14,126.82,115.3,126.82z M113.08,123.99c1.12,0,2.24,0,3.36,0
		c0.36,0,0.64-0.04,0.53-0.54c-0.5-2.27-3.42-3.69-5.54-2.72c-1.17,0.53-1.81,1.44-2.24,2.59c-0.21,0.55-0.05,0.67,0.45,0.67
		C110.79,123.98,111.94,123.99,113.08,123.99z"/>
	<path class="st2" d="M187.21,127.97c0,1.86-0.02,3.38,0.01,4.9c0.01,0.53-0.18,0.69-0.69,0.69c-1.17-0.02-2.35-0.04-3.51,0.03
		c-0.55,0.03-0.6-0.17-0.6-0.62c0.01-2.88,0.01-5.77,0.01-8.65c0-1.89-1.08-3.19-3.17-3.17c-2.51,0.03-3.88,1.39-3.86,3.92
		c0.02,2.61,0.04,5.22,0.09,7.83c0.01,0.51-0.11,0.7-0.67,0.67c-1.09-0.05-2.19-0.03-3.29,0c-0.54,0.01-0.8-0.11-0.8-0.75
		c0.03-5.02,0.03-10.03,0.04-15.05c0-0.28-0.02-0.61,0.35-0.62c1.26-0.01,2.52-0.17,3.78,0.1c0.34,0.07,0.39,0.13,0.21,0.39
		c-0.01,0.02-0.02,0.05-0.02,0.07c0.01,0.44-0.2,1.08,0.08,1.27c0.38,0.25,0.65-0.36,0.97-0.59c1.23-0.88,2.58-1.47,4.12-1.4
		c0.76,0.03,1.51-0.01,2.28,0.1c2.43,0.35,4.1,2.97,4.4,4.82C187.3,124.04,187.12,126.18,187.21,127.97z"/>
	<path class="st2" d="M130.91,116.98c1.97-0.12,3.95,0.34,5.92,0.97c0.58,0.19,0.68,0.43,0.42,0.97c-0.35,0.72-0.64,1.48-0.93,2.22
		c-0.17,0.42-0.34,0.57-0.83,0.34c-1.37-0.64-2.86-0.86-4.35-1.07c-0.69-0.1-1.37,0.04-2,0.37c-0.51,0.26-0.99,0.64-0.87,1.24
		c0.13,0.64,0.62,1.05,1.31,1.23c1.71,0.43,3.47,0.63,5.15,1.18c1.75,0.57,2.86,1.91,2.98,3.9c0.15,2.67-2.01,4.5-4.08,5.06
		c-3.39,0.91-6.62,0.41-9.72-1.17c-0.55-0.28-0.71-0.52-0.38-1.11c0.36-0.63,0.62-1.34,0.89-2.02c0.18-0.45,0.35-0.54,0.82-0.26
		c2.08,1.26,4.33,1.78,6.75,1.28c0.83-0.17,1.2-0.59,1.18-1.26c-0.02-0.8-0.36-1.07-1.21-1.3c-1.94-0.51-3.98-0.56-5.81-1.54
		c-2.99-1.61-3.04-4.87-1.11-7.03C126.56,117.27,128.61,116.87,130.91,116.98z"/>
	<path class="st2" d="M202.77,124.58c0.74-0.39,1.16-1.02,1.61-1.53c2-2.3,4.24-4.37,6.27-6.65c1.25-1.41,2.67-2.68,4-4.02
		c0.34-0.34,0.71-0.5,1.2-0.47c0.51,0.03,1.03,0.01,1.7,0.01c-0.34,0.44-0.55,0.83-0.86,1.1c-2.1,1.83-3.88,3.97-5.88,5.91
		c-0.69,0.67-1.26,1.48-2,2.1c-0.44,0.37-0.03,0.6,0.11,0.78c1.81,2.28,3.64,4.55,5.46,6.82c1.27,1.58,2.54,3.17,3.82,4.78
		c-1.53,0.47-2.6-0.02-3.46-1.26c-1.43-2.08-3.14-3.94-4.71-5.91c-0.76-0.95-1.65-1.78-2.36-2.77c-0.35-0.48-0.67-0.56-1.11-0.06
		c-1.08,1.23-2.19,2.44-3.33,3.62c-0.36,0.37-0.48,0.75-0.48,1.25c0.03,1.52-0.01,3.03,0.02,4.55c0.01,0.48-0.09,0.71-0.65,0.73
		c-1.46,0.05-1.46,0.07-1.46-1.38c0-4.9,0.05-9.79-0.02-14.68c-0.03-1.65-0.09-3.3-0.13-4.95c-0.01-0.48,0.12-0.63,0.61-0.63
		c1.64-0.01,1.64-0.03,1.64,1.58C202.77,117.12,202.77,120.78,202.77,124.58z"/>
	<path class="st2" d="M145.61,125.38c0,2.51-0.01,5.02,0.01,7.53c0,0.46-0.09,0.69-0.6,0.63c-1.14-0.12-2.26,0.18-3.4,0.16
		c-0.64-0.01-0.76-0.35-0.61-0.79c0.11-0.35,0.11-0.68,0.11-1.02c0.01-4,0.02-8,0-12c0-0.66-0.07-1.32-0.15-1.98
		c-0.07-0.59,0.14-0.8,0.74-0.78c1.1,0.04,2.19,0.04,3.29,0.01c0.51-0.02,0.63,0.16,0.62,0.64
		C145.59,120.31,145.61,122.85,145.61,125.38z"/>
	<path class="st2" d="M230.17,119.1c-0.71-0.02-1.41-0.11-2.13,0.09c-0.73,0.2-1.2-0.3-1.07-1.06c0.02-0.11,0.01-0.17-0.03-0.26
		c-0.25-0.54,0.07-0.62,0.51-0.62c0.75,0,1.5-0.04,2.24-0.03c0.36,0.01,0.48-0.1,0.47-0.46c-0.02-0.84,0.02-1.69-0.02-2.53
		c-0.02-0.51,0.12-0.7,0.67-0.7c1.29,0.01,1.27-0.02,1.3,1.27c0.02,0.81-0.36,1.89,0.16,2.35c0.45,0.4,1.52,0.11,2.31,0.12
		c0.65,0.01,1.3,0.03,1.94-0.01c0.44-0.03,0.53,0.14,0.53,0.55c0.01,1.26,0.02,1.26-1.24,1.26c-1.07,0-2.14,0.02-3.22-0.01
		c-0.39-0.01-0.5,0.1-0.5,0.49c0.02,3.21,0.05,6.41-0.01,9.62c-0.03,1.78,1.57,3.45,4.02,2.38c0.04-0.02,0.07-0.07,0.12-0.09
		c0.98-0.44,1.35-0.2,1.41,0.9c0.01,0.16,0.02,0.31-0.15,0.46c-1.54,1.26-4.58,1.11-6.04-0.28c-0.87-0.84-1.26-1.91-1.27-3.04
		c-0.04-3.43,0.03-6.85,0.05-10.28c0.01-0.02,0.03-0.03,0.04-0.05C230.24,119.14,230.2,119.12,230.17,119.1z"/>
	<path class="st1" d="M61.31,144.75c1.3,0,2.59,0.04,3.89-0.02c0.65-0.03,0.81,0.21,0.79,0.8c-0.03,0.84-0.02,1.69,0.02,2.53
		c0.03,0.57-0.2,0.72-0.74,0.71c-2.24-0.02-4.48,0-6.72,0.02c-0.49,0-0.99,0.06-1.48,0.12c-0.43,0.05-0.59-0.17-0.59-0.55
		c0.02-1.02,0.05-2.04,0.06-3.05c0-0.47,0.26-0.58,0.67-0.57c1.37,0.01,2.74,0,4.11,0C61.31,144.74,61.31,144.75,61.31,144.75z"/>
	<path class="st2" d="M223.57,125.33c0,2.46-0.02,4.92,0.01,7.38c0.01,0.67-0.22,0.91-0.86,0.83c-0.15-0.02-0.3-0.02-0.45-0.01
		c-0.57,0.06-0.8-0.14-0.78-0.75c0.04-1.64,0.04-3.28-0.01-4.92c-0.1-3.34-0.16-6.69-0.17-10.03c0-0.44,0.08-0.58,0.56-0.58
		c1.68,0.01,1.67-0.01,1.67,1.65c0,2.14,0,4.28,0,6.41C223.56,125.33,223.56,125.33,223.57,125.33z"/>
	<path class="st2" d="M143.24,114.59c-1.57-0.02-2.71-1.16-2.74-2.64c-0.02-1.12,1.32-2.55,2.75-2.44c1.76,0.14,2.79,1,2.82,2.73
		C146.09,113.49,144.68,114.74,143.24,114.59z"/>
	<path class="st2" d="M224.02,112.09c0,0.99-0.53,1.46-1.64,1.45c-0.87,0-1.5-0.65-1.5-1.52c0-0.79,0.77-1.47,1.68-1.48
		C223.47,110.53,224.02,111.12,224.02,112.09z"/>
	<path class="st1" d="M81.24,111.96l0.02,0.04c0,0-0.04,0.03-0.04,0.03c-0.01-0.02-0.02-0.05-0.03-0.07
		C81.21,111.96,81.23,111.96,81.24,111.96z"/>
	<path class="st1" d="M230.17,119.1c0.04,0.02,0.07,0.03,0.11,0.05c-0.01,0.02-0.03,0.03-0.04,0.05c0,0-0.06-0.03-0.06-0.03
		S230.17,119.1,230.17,119.1z"/>
</g>
</svg>
